<svg version="1.1" id="Layer_1" xmlns="http://www.w3.org/2000/svg" xmlns:xlink="http://www.w3.org/1999/xlink" x="0px" y="0px"
	 width="100%" viewBox="0 0 1321 320" enable-background="new 0 0 1321 320" xml:space="preserve">
<path fill="#FFF987" opacity="1.000000" stroke="none" 
	d="
M895.000000,321.000000 
	C596.666687,321.000000 298.833405,321.000000 1.000080,321.000000 
	C1.000053,214.333374 1.000053,107.666763 1.000027,1.000109 
	C441.333252,1.000072 881.666504,1.000072 1321.999756,1.000036 
	C1321.999878,107.666557 1321.999878,214.333115 1322.000000,320.999817 
	C1179.833374,321.000000 1037.666626,321.000000 895.000000,321.000000 
M1298.999878,284.099060 
	C1299.009644,199.397369 1299.019409,114.695663 1299.518921,29.528454 
	C1299.278564,24.096451 1295.051880,26.097616 1292.446289,26.097075 
	C874.073242,26.009932 455.700256,26.013384 37.327225,26.013563 
	C29.627945,26.013565 29.015785,26.647221 29.017794,34.733982 
	C29.038187,116.795341 29.041344,198.856750 29.191795,280.917877 
	C29.196056,283.242218 30.750914,285.576447 31.724863,287.845032 
	C31.768988,287.947815 33.222679,287.445404 34.945835,287.113434 
	C39.954819,287.155121 44.963802,287.196838 50.233311,287.979889 
	C52.447922,288.313416 54.662498,288.938904 56.877148,288.939148 
	C462.220856,288.982025 867.564575,288.980530 1272.908325,288.979218 
	C1274.574097,288.979218 1276.268188,289.135742 1277.893188,288.872742 
	C1278.672363,288.746613 1279.320312,287.809631 1280.951416,287.124908 
	C1285.963013,287.157623 1290.974609,287.190338 1296.124512,287.806732 
	C1298.505127,288.699860 1298.616333,288.591431 1298.999878,284.099060 
z"/>
<path fill="#E9E79B" opacity="1.000000" stroke="none" 
	d="
M34.019840,287.224854 
	C33.222679,287.445404 31.768988,287.947815 31.724863,287.845032 
	C30.750914,285.576447 29.196056,283.242218 29.191795,280.917877 
	C29.041344,198.856750 29.038187,116.795341 29.017794,34.733982 
	C29.015785,26.647221 29.627945,26.013565 37.327225,26.013563 
	C455.700256,26.013384 874.073242,26.009932 1292.446289,26.097075 
	C1295.051880,26.097616 1299.278564,24.096451 1299.012939,29.654510 
	C1298.007202,29.523361 1297.507446,29.266155 1296.573486,28.811106 
	C1293.140503,28.580959 1290.141724,28.520334 1287.143066,28.520367 
	C871.830872,28.524988 456.518646,28.534214 41.206421,28.541561 
	C32.535130,28.541714 32.541401,28.532381 32.923210,36.861801 
	C32.976578,38.026024 32.934196,39.194683 32.934231,40.361290 
	C32.936474,117.524033 32.941948,194.686768 32.919472,271.849518 
	C32.918941,273.658752 32.444008,275.470398 32.472408,277.276520 
	C32.518013,280.176422 32.799580,283.072601 33.090408,286.224884 
	C33.472866,286.727905 33.746353,286.976379 34.019840,287.224854 
z"/>
<path fill="#E9E79B" opacity="1.000000" stroke="none" 
	d="
M1280.027710,287.239899 
	C1279.320312,287.809631 1278.672363,288.746613 1277.893188,288.872742 
	C1276.268188,289.135742 1274.574097,288.979218 1272.908325,288.979218 
	C867.564575,288.980530 462.220856,288.982025 56.877148,288.939148 
	C54.662498,288.938904 52.447922,288.313416 50.570724,287.541168 
	C52.407230,287.085510 53.906326,287.053741 55.405418,287.053711 
	C461.783630,287.051575 868.161804,287.051392 1274.540039,287.059387 
	C1276.369263,287.059448 1278.198486,287.177155 1280.027710,287.239899 
z"/>
<path fill="#FFFFDE" opacity="1.000000" stroke="none" 
	d="
M1280.489502,287.182434 
	C1278.198486,287.177155 1276.369263,287.059448 1274.540039,287.059387 
	C868.161804,287.051392 461.783630,287.051575 55.405418,287.053711 
	C53.906326,287.053741 52.407230,287.085510 50.440460,287.170471 
	C44.963802,287.196838 39.954819,287.155121 34.482838,287.169159 
	C33.746353,286.976379 33.472866,286.727905 33.558472,286.172119 
	C36.415352,285.903809 38.913136,285.976837 41.410923,285.976868 
	C453.581848,285.981140 865.752808,285.980438 1277.923706,285.976990 
	C1284.254028,285.976959 1290.584473,285.941010 1296.902100,285.969452 
	C1296.889282,286.017090 1296.972290,286.070312 1296.869995,286.307648 
	C1296.507202,286.771027 1296.246704,286.997101 1295.986206,287.223083 
	C1290.974609,287.190338 1285.963013,287.157623 1280.489502,287.182434 
z"/>
<path fill="#EAE5BA" opacity="1.000000" stroke="none" 
	d="
M1297.007812,29.008942 
	C1297.507446,29.266155 1298.007202,29.523361 1298.768066,29.887268 
	C1299.019409,114.695663 1299.009644,199.397369 1298.721924,284.675232 
	C1297.953491,285.524414 1297.462891,285.797363 1296.972290,286.070312 
	C1296.972290,286.070312 1296.889282,286.017090 1296.951050,285.507324 
	C1297.011108,199.667999 1297.009399,114.338470 1297.007812,29.008942 
z"/>
<path fill="#E9E79B" opacity="1.000000" stroke="none" 
	d="
M1296.869995,286.307648 
	C1297.462891,285.797363 1297.953491,285.524414 1298.702759,285.146118 
	C1298.616333,288.591431 1298.505127,288.699860 1296.055420,287.514954 
	C1296.246704,286.997101 1296.507202,286.771027 1296.869995,286.307648 
z"/>
<path fill="#030303" opacity="1.000000" stroke="none" 
	d="
M1296.573486,28.811100 
	C1297.009399,114.338470 1297.011108,199.667999 1296.963867,285.459656 
	C1290.584473,285.941010 1284.254028,285.976959 1277.923706,285.976990 
	C865.752808,285.980438 453.581848,285.981140 41.410923,285.976868 
	C38.913136,285.976837 36.415352,285.903809 33.449501,285.917603 
	C32.799580,283.072601 32.518013,280.176422 32.472408,277.276520 
	C32.444008,275.470398 32.918941,273.658752 32.919472,271.849518 
	C32.941948,194.686768 32.936474,117.524033 32.934231,40.361290 
	C32.934196,39.194683 32.976578,38.026024 32.923210,36.861801 
	C32.541401,28.532381 32.535130,28.541714 41.206421,28.541561 
	C456.518646,28.534214 871.830872,28.524988 1287.143066,28.520367 
	C1290.141724,28.520334 1293.140503,28.580959 1296.573486,28.811100 
M501.010437,110.665489 
	C501.832581,105.958809 502.654694,101.252129 503.605927,95.806442 
	C495.666046,95.806442 488.385101,95.680473 481.118927,95.951355 
	C480.107086,95.989075 478.553619,97.852539 478.295441,99.088951 
	C476.663879,106.902603 475.324493,114.777328 473.893127,122.632706 
	C471.459595,135.987839 469.029449,149.343567 466.378265,163.905182 
	C464.820740,161.621246 463.897522,160.361877 463.071625,159.041595 
	C455.211212,146.476364 447.361816,133.904266 439.520447,121.327133 
	C433.188080,111.170296 422.722168,110.975952 416.366974,120.962097 
	C410.734009,129.813324 405.199585,138.727203 399.602814,147.601532 
	C396.301514,152.836090 392.963593,158.047516 389.205078,163.956467 
	C388.573425,160.862686 388.102722,158.757812 387.717255,156.637436 
	C384.293884,137.805710 380.925934,118.963692 377.398132,100.151619 
	C377.108765,98.608665 375.815552,96.058113 374.898071,96.017342 
	C367.328888,95.681046 359.738281,95.827209 351.817291,95.827209 
	C352.323090,98.847046 352.679352,101.131996 353.090820,103.406967 
	C358.956635,135.837921 364.835632,168.266510 370.695892,200.698486 
	C371.712158,206.322968 374.660919,210.152328 380.483582,211.227036 
	C386.479340,212.333694 390.806396,209.851074 393.886749,204.767563 
	C399.237518,195.937149 404.627228,187.130295 410.010590,178.319641 
	C415.775024,168.885422 421.550995,159.458267 427.637299,149.512680 
	C428.801941,151.255325 429.562408,152.309677 430.237671,153.416046 
	C440.735413,170.616577 451.192505,187.842026 461.730560,205.017822 
	C464.674591,209.816223 468.920685,212.401611 474.736115,211.466690 
	C479.833893,210.647156 483.933807,206.360626 484.990997,200.492508 
	C490.332275,170.844406 495.588715,141.181046 501.010437,110.665489 
M1141.507568,95.798477 
	C1137.347778,95.937149 1133.146729,95.749474 1129.034790,96.267647 
	C1103.000244,99.548386 1089.999756,128.042953 1104.367554,150.062027 
	C1111.650146,161.222672 1122.501099,165.238144 1135.160400,165.386612 
	C1149.156738,165.550751 1163.156616,165.407303 1177.154785,165.446991 
	C1181.286255,165.458694 1185.187378,166.124527 1187.401611,170.278580 
	C1191.061523,177.145035 1187.432373,184.525116 1179.767334,185.653107 
	C1177.967163,185.918015 1176.110840,185.850754 1174.280273,185.851486 
	C1151.116455,185.860703 1127.952271,185.816040 1104.789062,185.932251 
	C1103.116333,185.940643 1100.031006,187.024658 1099.997803,187.722702 
	C1099.645630,195.112823 1099.779663,202.526123 1099.779663,210.058319 
	C1128.178345,210.058319 1155.671509,210.498138 1183.138550,209.842636 
	C1194.182373,209.579086 1203.224731,203.571106 1208.601685,193.614761 
	C1220.820679,170.989059 1208.611206,141.501801 1178.220581,140.918777 
	C1163.894165,140.643936 1149.557861,140.929138 1135.226685,140.848846 
	C1127.361206,140.804794 1123.835083,137.670990 1123.615723,130.899384 
	C1123.387817,123.865074 1126.956665,120.471283 1135.032471,120.443398 
	C1155.696411,120.372040 1176.360718,120.415611 1197.024902,120.413277 
	C1198.943115,120.413063 1200.861450,120.413261 1202.806641,120.413261 
	C1202.806641,111.851028 1202.806641,103.948196 1202.806641,95.798454 
	C1182.461548,95.798454 1162.483276,95.798454 1141.507568,95.798477 
M153.836884,124.659981 
	C145.554352,115.983810 137.303787,107.276794 128.974991,98.645256 
	C125.151886,94.683197 120.414337,93.349037 115.254440,95.292328 
	C110.283142,97.164589 107.770210,101.181122 107.349342,106.462471 
	C107.243629,107.789009 107.230637,109.125534 107.230347,110.457481 
	C107.223549,141.955551 107.224319,173.453629 107.223701,204.951706 
	C107.223671,206.555664 107.223701,208.159637 107.223701,209.931519 
	C115.685799,209.931519 123.447380,209.931519 131.903244,209.931519 
	C131.903244,185.826828 131.903244,161.988022 131.903244,138.149216 
	C132.504364,137.768188 133.105469,137.387161 133.706589,137.006149 
	C134.714188,138.477371 135.541061,140.121109 136.756256,141.394165 
	C157.692596,163.326828 178.640366,185.248871 199.670456,207.091583 
	C206.931885,214.633606 217.299362,213.070724 220.799438,203.903809 
	C221.715897,201.503571 221.782318,198.677475 221.787613,196.046051 
	C221.850937,164.548096 221.829041,133.049988 221.829453,101.551910 
	C221.829468,99.785278 221.829468,98.018646 221.829468,96.099854 
	C213.328598,96.099854 205.587189,96.099854 196.968292,96.099854 
	C196.968292,120.321136 196.968292,144.241226 196.968292,169.569290 
	C181.998795,153.976654 168.167206,139.569290 153.836884,124.659981 
M239.896133,184.203125 
	C241.440750,198.750153 252.887863,209.730133 268.187439,209.980682 
	C293.008575,210.387161 317.841614,210.070587 342.669586,210.038544 
	C342.946442,210.038193 343.222992,209.760086 343.687744,209.510727 
	C343.687744,201.855225 343.687744,194.117691 343.687744,185.858078 
	C341.608887,185.858078 339.822906,185.858017 338.036957,185.858078 
	C316.204742,185.858856 294.372528,185.872314 272.540314,185.853333 
	C265.351746,185.847076 264.135345,184.673752 264.114716,177.425583 
	C264.064911,159.926636 264.090881,142.427429 264.111084,124.928375 
	C264.112579,123.636536 264.312378,122.344925 264.467163,120.486893 
	C290.916199,120.486893 317.153198,120.486893 343.645569,120.486893 
	C343.645569,112.007530 343.645569,104.119759 343.645569,96.347824 
	C343.008301,96.116096 342.704773,95.909264 342.401031,95.908966 
	C312.238312,95.879349 282.075043,95.765656 251.913177,95.920174 
	C244.324066,95.959053 239.778381,100.492256 239.725143,108.285904 
	C239.554428,133.278931 239.756760,158.274506 239.896133,184.203125 
M643.837341,205.759918 
	C649.721191,207.231171 655.579773,209.840622 661.493347,209.971832 
	C684.136780,210.474274 706.797791,210.187119 729.452271,210.167664 
	C730.874390,210.166443 732.296326,209.934509 734.081787,209.778076 
	C734.081787,203.354462 733.812744,197.366089 734.171936,191.415634 
	C734.431763,187.111069 733.290466,185.694397 728.715393,185.746811 
	C706.730103,185.998749 684.740356,185.869827 662.752197,185.850922 
	C655.390747,185.844589 654.139221,184.564789 654.131531,177.057907 
	C654.114075,159.900513 654.121460,142.743057 654.144287,125.585678 
	C654.146423,123.997169 654.331482,122.408897 654.457458,120.410263 
	C656.706970,120.410263 658.510193,120.410194 660.313416,120.410271 
	C683.301025,120.411255 706.289124,120.342659 729.275879,120.484840 
	C732.916321,120.507355 734.383728,119.584740 734.158447,115.733208 
	C733.857361,110.587135 733.882874,105.398643 734.163147,100.249870 
	C734.358032,96.668655 733.058594,95.729546 729.604248,95.743607 
	C700.953430,95.860229 672.301880,95.759933 643.650818,95.837219 
	C634.281738,95.862488 629.760742,100.281021 629.713074,109.683655 
	C629.593140,133.336884 629.618042,156.991592 629.735535,180.644943 
	C629.787964,191.211792 634.115112,199.632751 643.837341,205.759918 
M868.930176,113.594643 
	C868.932495,135.078217 868.910095,156.561844 868.944397,178.045349 
	C868.976379,198.138870 880.847107,210.112350 900.888000,210.170654 
	C923.370728,210.236069 945.853699,210.186401 968.336609,210.168945 
	C969.923096,210.167709 971.509399,210.019119 973.373718,209.925018 
	C973.373718,203.157745 973.142944,196.996796 973.456970,190.863739 
	C973.658325,186.931503 972.475403,185.737839 968.460083,185.773010 
	C946.645020,185.964233 924.827393,185.868408 903.010681,185.865936 
	C894.301636,185.864944 893.433472,184.967331 893.430481,176.038925 
	C893.425110,159.884583 893.415894,143.730255 893.414551,127.575920 
	C893.413940,120.406639 893.420837,120.408020 900.705444,120.407967 
	C923.354858,120.407784 946.004822,120.326149 968.653137,120.485336 
	C972.388611,120.511597 973.651489,119.428886 973.455811,115.690285 
	C973.177551,110.375648 973.306091,105.033691 973.422974,99.706970 
	C973.479980,97.111893 972.917603,95.747368 969.869751,95.757156 
	C940.392578,95.851906 910.914856,95.771294 881.437744,95.881104 
	C875.284119,95.904022 871.346741,98.796288 869.813416,104.249245 
	C869.064026,106.914497 869.201172,109.829033 868.930176,113.594643 
M859.125854,95.780785 
	C853.130188,95.784889 847.127563,95.962753 841.141663,95.722702 
	C837.959106,95.595093 836.400696,96.886032 835.075989,99.627724 
	C824.289856,121.951683 813.379333,144.215561 802.490112,166.489639 
	C801.742126,168.019714 800.861084,169.484756 799.651123,171.693314 
	C798.331482,169.140594 797.463867,167.544922 796.669617,165.913483 
	C786.034668,144.068756 775.434082,122.207207 764.735107,100.393883 
	C763.912109,98.715935 762.471924,96.126831 761.221008,96.068878 
	C752.869629,95.681992 744.491699,95.868034 735.501648,95.868034 
	C736.374878,97.970863 736.808289,99.196144 737.376099,100.355644 
	C754.135620,134.578293 770.944214,168.776962 787.641602,203.029861 
	C790.215088,208.309235 793.991821,211.709595 799.934570,211.663803 
	C805.927551,211.617615 809.492737,207.912628 812.028625,202.712265 
	C825.153687,175.795959 838.406738,148.942108 851.589722,122.053978 
	C855.739807,113.589455 859.810913,105.086243 864.129700,96.163719 
	C862.254333,95.989441 861.135925,95.885513 859.125854,95.780785 
M592.500000,185.855988 
	C575.082092,185.855988 557.664246,185.855988 539.696777,185.855988 
	C539.696777,155.497894 539.696777,125.791031 539.696777,96.090057 
	C531.375122,96.090057 523.614380,96.090057 515.248230,96.090057 
	C515.248230,97.998581 515.248169,99.612564 515.248230,101.226547 
	C515.249329,132.358093 515.242981,163.489624 515.255554,194.621170 
	C515.260254,206.307053 519.121094,210.173538 530.869507,210.183044 
	C559.004395,210.205795 587.139343,210.189728 615.274231,210.189331 
	C616.899963,210.189301 618.525635,210.189316 620.846008,210.189316 
	C620.846008,203.096512 620.675110,196.482956 620.915405,189.884399 
	C621.042847,186.383652 619.551514,185.723572 616.472839,185.792282 
	C608.818542,185.963074 601.158020,185.853149 592.500000,185.855988 
M987.667603,120.499901 
	C987.666931,145.151062 987.639587,169.802261 987.677307,194.453354 
	C987.695251,206.227524 991.579407,210.157074 1003.180908,210.169418 
	C1031.496460,210.199524 1059.811890,210.183517 1088.127441,210.168701 
	C1089.716919,210.167862 1091.306274,210.010269 1093.270020,209.905701 
	C1093.270020,204.534454 1093.273315,199.726639 1093.269287,194.918808 
	C1093.261841,185.855240 1093.260132,185.861435 1084.443481,185.862549 
	C1062.290771,185.865341 1040.137939,185.861969 1017.985229,185.861084 
	C1016.212097,185.861023 1014.439026,185.861069 1012.019531,185.861069 
	C1012.019531,155.497208 1012.019531,125.803764 1012.019531,95.807671 
	C1004.558594,95.807671 997.747437,95.877968 990.939026,95.773560 
	C988.162842,95.730972 987.623962,97.146523 987.650452,99.512787 
	C987.724915,106.174393 987.670898,112.837433 987.667603,120.499901 
M288.500244,140.869110 
	C281.701141,140.869110 274.902039,140.869110 267.778625,140.869110 
	C267.778625,149.232864 267.778625,157.101746 267.778625,165.019653 
	C290.338531,165.019653 312.523071,165.019653 334.678284,165.019653 
	C334.678284,156.844635 334.678284,149.091156 334.678284,140.869095 
	C319.400726,140.869095 304.450439,140.869095 288.500244,140.869110 
M710.484985,165.438309 
	C715.241821,165.438309 719.998596,165.438309 725.150391,165.438309 
	C725.150391,158.324997 724.885742,152.006027 725.243225,145.722443 
	C725.482117,141.523941 723.819946,140.757736 720.048035,140.789993 
	C700.898987,140.953827 681.747864,140.857376 662.597412,140.880707 
	C661.015320,140.882629 659.433411,141.097931 657.799805,141.217880 
	C657.799805,149.481934 657.799805,157.204178 657.799805,165.438187 
	C675.262451,165.438187 692.376404,165.438187 710.484985,165.438309 
M964.368408,158.479233 
	C964.368408,152.737610 964.368408,146.996002 964.368408,141.176636 
	C941.473328,141.176636 919.436401,141.176636 897.242249,141.176636 
	C897.242249,149.364685 897.242249,157.239685 897.242249,165.417786 
	C917.896118,165.417786 938.184570,165.256531 958.467041,165.535461 
	C963.307617,165.602036 965.217102,164.247940 964.368408,158.479233 
z"/>
<path fill="#F9F9F9" opacity="1.000000" stroke="none" 
	d="
M500.942688,111.094269 
	C495.588715,141.181046 490.332275,170.844406 484.990997,200.492508 
	C483.933807,206.360626 479.833893,210.647156 474.736115,211.466690 
	C468.920685,212.401611 464.674591,209.816223 461.730560,205.017822 
	C451.192505,187.842026 440.735413,170.616577 430.237671,153.416046 
	C429.562408,152.309677 428.801941,151.255325 427.637299,149.512680 
	C421.550995,159.458267 415.775024,168.885422 410.010590,178.319641 
	C404.627228,187.130295 399.237518,195.937149 393.886749,204.767563 
	C390.806396,209.851074 386.479340,212.333694 380.483582,211.227036 
	C374.660919,210.152328 371.712158,206.322968 370.695892,200.698486 
	C364.835632,168.266510 358.956635,135.837921 353.090820,103.406967 
	C352.679352,101.131996 352.323090,98.847046 351.817291,95.827209 
	C359.738281,95.827209 367.328888,95.681046 374.898071,96.017342 
	C375.815552,96.058113 377.108765,98.608665 377.398132,100.151619 
	C380.925934,118.963692 384.293884,137.805710 387.717255,156.637436 
	C388.102722,158.757812 388.573425,160.862686 389.205078,163.956467 
	C392.963593,158.047516 396.301514,152.836090 399.602814,147.601532 
	C405.199585,138.727203 410.734009,129.813324 416.366974,120.962097 
	C422.722168,110.975952 433.188080,111.170296 439.520447,121.327133 
	C447.361816,133.904266 455.211212,146.476364 463.071625,159.041595 
	C463.897522,160.361877 464.820740,161.621246 466.378265,163.905182 
	C469.029449,149.343567 471.459595,135.987839 473.893127,122.632706 
	C475.324493,114.777328 476.663879,106.902603 478.295441,99.088951 
	C478.553619,97.852539 480.107086,95.989075 481.118927,95.951355 
	C488.385101,95.680473 495.666046,95.806442 503.605927,95.806442 
	C502.654694,101.252129 501.832581,105.958809 500.942688,111.094269 
z"/>
<path fill="#FAFAFA" opacity="1.000000" stroke="none" 
	d="
M1142.006348,95.798462 
	C1162.483276,95.798454 1182.461548,95.798454 1202.806641,95.798454 
	C1202.806641,103.948196 1202.806641,111.851028 1202.806641,120.413261 
	C1200.861450,120.413261 1198.943115,120.413063 1197.024902,120.413277 
	C1176.360718,120.415611 1155.696411,120.372040 1135.032471,120.443398 
	C1126.956665,120.471283 1123.387817,123.865074 1123.615723,130.899384 
	C1123.835083,137.670990 1127.361206,140.804794 1135.226685,140.848846 
	C1149.557861,140.929138 1163.894165,140.643936 1178.220581,140.918777 
	C1208.611206,141.501801 1220.820679,170.989059 1208.601685,193.614761 
	C1203.224731,203.571106 1194.182373,209.579086 1183.138550,209.842636 
	C1155.671509,210.498138 1128.178345,210.058319 1099.779663,210.058319 
	C1099.779663,202.526123 1099.645630,195.112823 1099.997803,187.722702 
	C1100.031006,187.024658 1103.116333,185.940643 1104.789062,185.932251 
	C1127.952271,185.816040 1151.116455,185.860703 1174.280273,185.851486 
	C1176.110840,185.850754 1177.967163,185.918015 1179.767334,185.653107 
	C1187.432373,184.525116 1191.061523,177.145035 1187.401611,170.278580 
	C1185.187378,166.124527 1181.286255,165.458694 1177.154785,165.446991 
	C1163.156616,165.407303 1149.156738,165.550751 1135.160400,165.386612 
	C1122.501099,165.238144 1111.650146,161.222672 1104.367554,150.062027 
	C1089.999756,128.042953 1103.000244,99.548386 1129.034790,96.267647 
	C1133.146729,95.749474 1137.347778,95.937149 1142.006348,95.798462 
z"/>
<path fill="#F8F8F8" opacity="1.000000" stroke="none" 
	d="
M154.086243,124.910957 
	C168.167206,139.569290 181.998795,153.976654 196.968292,169.569290 
	C196.968292,144.241226 196.968292,120.321136 196.968292,96.099854 
	C205.587189,96.099854 213.328598,96.099854 221.829468,96.099854 
	C221.829468,98.018646 221.829468,99.785278 221.829453,101.551910 
	C221.829041,133.049988 221.850937,164.548096 221.787613,196.046051 
	C221.782318,198.677475 221.715897,201.503571 220.799438,203.903809 
	C217.299362,213.070724 206.931885,214.633606 199.670456,207.091583 
	C178.640366,185.248871 157.692596,163.326828 136.756256,141.394165 
	C135.541061,140.121109 134.714188,138.477371 133.706589,137.006149 
	C133.105469,137.387161 132.504364,137.768188 131.903244,138.149216 
	C131.903244,161.988022 131.903244,185.826828 131.903244,209.931519 
	C123.447380,209.931519 115.685799,209.931519 107.223701,209.931519 
	C107.223701,208.159637 107.223671,206.555664 107.223701,204.951706 
	C107.224319,173.453629 107.223549,141.955551 107.230347,110.457481 
	C107.230637,109.125534 107.243629,107.789009 107.349342,106.462471 
	C107.770210,101.181122 110.283142,97.164589 115.254440,95.292328 
	C120.414337,93.349037 125.151886,94.683197 128.974991,98.645256 
	C137.303787,107.276794 145.554352,115.983810 154.086243,124.910957 
z"/>
<path fill="#FAFAFA" opacity="1.000000" stroke="none" 
	d="
M239.855637,183.736115 
	C239.756760,158.274506 239.554428,133.278931 239.725143,108.285904 
	C239.778381,100.492256 244.324066,95.959053 251.913177,95.920174 
	C282.075043,95.765656 312.238312,95.879349 342.401031,95.908966 
	C342.704773,95.909264 343.008301,96.116096 343.645569,96.347824 
	C343.645569,104.119759 343.645569,112.007530 343.645569,120.486893 
	C317.153198,120.486893 290.916199,120.486893 264.467163,120.486893 
	C264.312378,122.344925 264.112579,123.636536 264.111084,124.928375 
	C264.090881,142.427429 264.064911,159.926636 264.114716,177.425583 
	C264.135345,184.673752 265.351746,185.847076 272.540314,185.853333 
	C294.372528,185.872314 316.204742,185.858856 338.036957,185.858078 
	C339.822906,185.858017 341.608887,185.858078 343.687744,185.858078 
	C343.687744,194.117691 343.687744,201.855225 343.687744,209.510727 
	C343.222992,209.760086 342.946442,210.038193 342.669586,210.038544 
	C317.841614,210.070587 293.008575,210.387161 268.187439,209.980682 
	C252.887863,209.730133 241.440750,198.750153 239.855637,183.736115 
z"/>
<path fill="#FAFAFA" opacity="1.000000" stroke="none" 
	d="
M643.535400,205.549561 
	C634.115112,199.632751 629.787964,191.211792 629.735535,180.644943 
	C629.618042,156.991592 629.593140,133.336884 629.713074,109.683655 
	C629.760742,100.281021 634.281738,95.862488 643.650818,95.837219 
	C672.301880,95.759933 700.953430,95.860229 729.604248,95.743607 
	C733.058594,95.729546 734.358032,96.668655 734.163147,100.249870 
	C733.882874,105.398643 733.857361,110.587135 734.158447,115.733208 
	C734.383728,119.584740 732.916321,120.507355 729.275879,120.484840 
	C706.289124,120.342659 683.301025,120.411255 660.313416,120.410271 
	C658.510193,120.410194 656.706970,120.410263 654.457458,120.410263 
	C654.331482,122.408897 654.146423,123.997169 654.144287,125.585678 
	C654.121460,142.743057 654.114075,159.900513 654.131531,177.057907 
	C654.139221,184.564789 655.390747,185.844589 662.752197,185.850922 
	C684.740356,185.869827 706.730103,185.998749 728.715393,185.746811 
	C733.290466,185.694397 734.431763,187.111069 734.171936,191.415634 
	C733.812744,197.366089 734.081787,203.354462 734.081787,209.778076 
	C732.296326,209.934509 730.874390,210.166443 729.452271,210.167664 
	C706.797791,210.187119 684.136780,210.474274 661.493347,209.971832 
	C655.579773,209.840622 649.721191,207.231171 643.535400,205.549561 
z"/>
<path fill="#FBFBFB" opacity="1.000000" stroke="none" 
	d="
M868.933594,113.112686 
	C869.201172,109.829033 869.064026,106.914497 869.813416,104.249245 
	C871.346741,98.796288 875.284119,95.904022 881.437744,95.881104 
	C910.914856,95.771294 940.392578,95.851906 969.869751,95.757156 
	C972.917603,95.747368 973.479980,97.111893 973.422974,99.706970 
	C973.306091,105.033691 973.177551,110.375648 973.455811,115.690285 
	C973.651489,119.428886 972.388611,120.511597 968.653137,120.485336 
	C946.004822,120.326149 923.354858,120.407784 900.705444,120.407967 
	C893.420837,120.408020 893.413940,120.406639 893.414551,127.575920 
	C893.415894,143.730255 893.425110,159.884583 893.430481,176.038925 
	C893.433472,184.967331 894.301636,185.864944 903.010681,185.865936 
	C924.827393,185.868408 946.645020,185.964233 968.460083,185.773010 
	C972.475403,185.737839 973.658325,186.931503 973.456970,190.863739 
	C973.142944,196.996796 973.373718,203.157745 973.373718,209.925018 
	C971.509399,210.019119 969.923096,210.167709 968.336609,210.168945 
	C945.853699,210.186401 923.370728,210.236069 900.888000,210.170654 
	C880.847107,210.112350 868.976379,198.138870 868.944397,178.045349 
	C868.910095,156.561844 868.932495,135.078217 868.933594,113.112686 
z"/>
<path fill="#F9F9F9" opacity="1.000000" stroke="none" 
	d="
M859.571716,95.781181 
	C861.135925,95.885513 862.254333,95.989441 864.129700,96.163719 
	C859.810913,105.086243 855.739807,113.589455 851.589722,122.053978 
	C838.406738,148.942108 825.153687,175.795959 812.028625,202.712265 
	C809.492737,207.912628 805.927551,211.617615 799.934570,211.663803 
	C793.991821,211.709595 790.215088,208.309235 787.641602,203.029861 
	C770.944214,168.776962 754.135620,134.578293 737.376099,100.355644 
	C736.808289,99.196144 736.374878,97.970863 735.501648,95.868034 
	C744.491699,95.868034 752.869629,95.681992 761.221008,96.068878 
	C762.471924,96.126831 763.912109,98.715935 764.735107,100.393883 
	C775.434082,122.207207 786.034668,144.068756 796.669617,165.913483 
	C797.463867,167.544922 798.331482,169.140594 799.651123,171.693314 
	C800.861084,169.484756 801.742126,168.019714 802.490112,166.489639 
	C813.379333,144.215561 824.289856,121.951683 835.075989,99.627724 
	C836.400696,96.886032 837.959106,95.595093 841.141663,95.722702 
	C847.127563,95.962753 853.130188,95.784889 859.571716,95.781181 
z"/>
<path fill="#F9F9F9" opacity="1.000000" stroke="none" 
	d="
M593.000000,185.855988 
	C601.158020,185.853149 608.818542,185.963074 616.472839,185.792282 
	C619.551514,185.723572 621.042847,186.383652 620.915405,189.884399 
	C620.675110,196.482956 620.846008,203.096512 620.846008,210.189316 
	C618.525635,210.189316 616.899963,210.189301 615.274231,210.189331 
	C587.139343,210.189728 559.004395,210.205795 530.869507,210.183044 
	C519.121094,210.173538 515.260254,206.307053 515.255554,194.621170 
	C515.242981,163.489624 515.249329,132.358093 515.248230,101.226547 
	C515.248169,99.612564 515.248230,97.998581 515.248230,96.090057 
	C523.614380,96.090057 531.375122,96.090057 539.696777,96.090057 
	C539.696777,125.791031 539.696777,155.497894 539.696777,185.855988 
	C557.664246,185.855988 575.082092,185.855988 593.000000,185.855988 
z"/>
<path fill="#FBFBFB" opacity="1.000000" stroke="none" 
	d="
M987.667603,119.999908 
	C987.670898,112.837433 987.724915,106.174393 987.650452,99.512787 
	C987.623962,97.146523 988.162842,95.730972 990.939026,95.773560 
	C997.747437,95.877968 1004.558594,95.807671 1012.019531,95.807671 
	C1012.019531,125.803764 1012.019531,155.497208 1012.019531,185.861069 
	C1014.439026,185.861069 1016.212097,185.861023 1017.985229,185.861084 
	C1040.137939,185.861969 1062.290771,185.865341 1084.443481,185.862549 
	C1093.260132,185.861435 1093.261841,185.855240 1093.269287,194.918808 
	C1093.273315,199.726639 1093.270020,204.534454 1093.270020,209.905701 
	C1091.306274,210.010269 1089.716919,210.167862 1088.127441,210.168701 
	C1059.811890,210.183517 1031.496460,210.199524 1003.180908,210.169418 
	C991.579407,210.157074 987.695251,206.227524 987.677307,194.453354 
	C987.639587,169.802261 987.666931,145.151062 987.667603,119.999908 
z"/>
<path fill="#F9F9F9" opacity="1.000000" stroke="none" 
	d="
M289.000214,140.869110 
	C304.450439,140.869095 319.400726,140.869095 334.678284,140.869095 
	C334.678284,149.091156 334.678284,156.844635 334.678284,165.019653 
	C312.523071,165.019653 290.338531,165.019653 267.778625,165.019653 
	C267.778625,157.101746 267.778625,149.232864 267.778625,140.869110 
	C274.902039,140.869110 281.701141,140.869110 289.000214,140.869110 
z"/>
<path fill="#F8F8F8" opacity="1.000000" stroke="none" 
	d="
M709.987671,165.438248 
	C692.376404,165.438187 675.262451,165.438187 657.799805,165.438187 
	C657.799805,157.204178 657.799805,149.481934 657.799805,141.217880 
	C659.433411,141.097931 661.015320,140.882629 662.597412,140.880707 
	C681.747864,140.857376 700.898987,140.953827 720.048035,140.789993 
	C723.819946,140.757736 725.482117,141.523941 725.243225,145.722443 
	C724.885742,152.006027 725.150391,158.324997 725.150391,165.438309 
	C719.998596,165.438309 715.241821,165.438309 709.987671,165.438248 
z"/>
<path fill="#FAFAFA" opacity="1.000000" stroke="none" 
	d="
M964.369385,158.976044 
	C965.217102,164.247940 963.307617,165.602036 958.467041,165.535461 
	C938.184570,165.256531 917.896118,165.417786 897.242249,165.417786 
	C897.242249,157.239685 897.242249,149.364685 897.242249,141.176636 
	C919.436401,141.176636 941.473328,141.176636 964.368408,141.176636 
	C964.368408,146.996002 964.368408,152.737610 964.369385,158.976044 
z"/>
</svg>